<?xml version="1.0" encoding="UTF-8" standalone="no" ?>
<!DOCTYPE svg PUBLIC "-//W3C//DTD SVG 1.1//EN" "http://www.w3.org/Graphics/SVG/1.1/DTD/svg11.dtd">
<svg xmlns="http://www.w3.org/2000/svg" xmlns:xlink="http://www.w3.org/1999/xlink" version="1.1" width="160" height="160" viewBox="0 0 180 180" xml:space="preserve">
<desc>Created with Fabric.js 5.2.4</desc>
<defs>
</defs>
<rect x="0" y="0" width="100%" height="100%" fill="transparent"></rect>
<g transform="matrix(1 0 0 1 80 80)" id="cff71217-211d-472b-874f-5caaa9def872"  >
<rect style="stroke: none; stroke-width: 1; stroke-dasharray: none; stroke-linecap: butt; stroke-dashoffset: 0; stroke-linejoin: miter; stroke-miterlimit: 4; fill: rgb(255,255,255); fill-rule: nonzero; opacity: 1; visibility: hidden;" vector-effect="non-scaling-stroke"  x="-80" y="-80" rx="0" ry="0" width="160" height="160" />
</g>
<g transform="matrix(Infinity NaN NaN Infinity 0 0)" id="1c1568eb-e822-4669-b4ed-feeee7da814d"  >
</g>
<g transform="matrix(1.01 0 0 1.01 80 80)" id="21c8b178-be3e-4958-bdf4-ebf91ee3c70b"  >
<path style="stroke: rgb(139,0,255); stroke-width: 0; stroke-dasharray: none; stroke-linecap: butt; stroke-dashoffset: 0; stroke-linejoin: miter; stroke-miterlimit: 4; fill: rgb(245,245,245); fill-rule: nonzero; opacity: 1;" vector-effect="non-scaling-stroke"  transform=" translate(-61.44, -52.51)" d="M 97.25 40.58 L 121.1 50.86 C 122.58 51.5 123.27 53.22 122.63 54.71 C 122.31 55.46 121.69999999999999 56.01 121 56.28 L 97.81 65.67 L 121.1 75.71000000000001 C 122.58 76.35000000000001 123.27 78.07000000000001 122.63 79.55000000000001 C 122.31 80.30000000000001 121.69999999999999 80.85000000000001 121 81.12 L 62.48 104.81 C 61.75 105.11 60.959999999999994 105.08 60.279999999999994 104.81 L 1.83 81.05 C 0.33000000000000007 80.44 -0.3900000000000001 78.74 0.21999999999999997 77.24 C 0.55 76.42 1.21 75.83999999999999 1.98 75.57 L 24.95 65.60999999999999 L 1.8299999999999983 56.20999999999999 C 0.3299999999999983 55.59999999999999 -0.3900000000000019 53.899999999999984 0.2199999999999982 52.399999999999984 C 0.5499999999999983 51.579999999999984 1.2099999999999982 50.999999999999986 1.9799999999999982 50.72999999999998 L 25.509999999999998 40.51999999999998 L 1.83 30.9 C 0.33000000000000007 30.29 -0.3900000000000001 28.59 0.21999999999999997 27.09 C 0.55 26.27 1.21 25.69 1.98 25.42 L 60.02 0.24 C 60.790000000000006 -0.09000000000000002 61.620000000000005 -0.07 62.330000000000005 0.24 L 62.330000000000005 0.22999999999999998 L 121.10000000000001 25.55 C 122.58000000000001 26.19 123.27000000000001 27.91 122.63000000000001 29.39 C 122.31000000000002 30.14 121.7 30.69 121.00000000000001 30.96 L 97.25 40.58 L 97.25 40.58 z M 112.36 53.47 L 89.63 43.68 L 62.49 54.66 C 61.760000000000005 54.959999999999994 60.97 54.93 60.29 54.66 L 33.08 43.6 L 10.47 53.4 L 61.39 74.1 L 112.36 53.47 L 112.36 53.47 z M 90.19 68.75 L 62.489999999999995 79.96000000000001 C 61.76 80.26 60.96999999999999 80.23 60.28999999999999 79.96000000000001 L 32.52 68.68 L 10.470000000000002 78.24000000000001 L 61.39 98.93 L 112.36 78.30000000000001 L 90.19 68.75 L 90.19 68.75 z M 61.17 6.1 L 10.469999999999999 28.089999999999996 L 61.39 48.78 L 112.36 28.150000000000002 L 61.17 6.1 L 61.17 6.1 z" stroke-linecap="round" />
</g>
</svg>